<?xml version="1.0" encoding="UTF-8"?><svg xmlns="http://www.w3.org/2000/svg" xmlns:xlink="http://www.w3.org/1999/xlink" width="375" zoomAndPan="magnify" viewBox="0 0 375 374.999991" height="374.999991" preserveAspectRatio="xMidYMid meet" version="1.0"><path fill="rgb(13.729858%, 12.159729%, 12.548828%)" d="M 208.308594 189.898438 L 331.203125 66.996094 C 337.394531 60.816406 337.394531 50.785156 331.203125 44.605469 C 325.023438 38.421875 315 38.421875 308.820312 44.605469 L 185.925781 167.515625 L 66.171875 47.761719 C 59.992188 41.570312 49.96875 41.570312 43.789062 47.761719 C 37.597656 53.933594 37.597656 63.972656 43.789062 70.144531 L 163.523438 189.898438 L 46.929688 306.503906 C 40.746094 312.683594 40.746094 322.714844 46.929688 328.894531 C 50.019531 331.984375 54.074219 333.527344 58.121094 333.527344 C 62.167969 333.527344 66.222656 331.976562 69.3125 328.894531 L 185.910156 212.300781 L 305.652344 332.035156 C 308.761719 335.125 312.808594 336.675781 316.863281 336.675781 C 320.910156 336.675781 324.964844 335.125 328.054688 332.035156 C 334.234375 325.863281 334.234375 315.832031 328.054688 309.652344 Z M 208.308594 189.898438 " fill-opacity="1" fill-rule="nonzero"/></svg>