<?xml version="1.0" encoding="UTF-8"?><svg xmlns="http://www.w3.org/2000/svg" xmlns:xlink="http://www.w3.org/1999/xlink" width="375" zoomAndPan="magnify" viewBox="0 0 375 374.999991" height="374.999991" preserveAspectRatio="xMidYMid meet" version="1.0"><path fill="rgb(0%, 0%, 0%)" d="M 346.265625 295.6875 C 342.917969 299.175781 338.746094 301.804688 334.070312 303.230469 C 335.515625 307.257812 336.183594 311.667969 336.007812 315.972656 C 335.734375 323.101562 333.132812 330.054688 327.886719 334.660156 C 319.953125 341.640625 308.578125 341.71875 298.339844 341.769531 C 296.507812 341.777344 294.699219 341.777344 292.867188 341.859375 C 292.660156 341.878906 292.445312 341.898438 292.21875 341.898438 L 166.011719 341.898438 C 149.324219 341.898438 137.566406 336.285156 129.882812 322.863281 C 122.820312 310.535156 119.6875 291.554688 119.6875 263.933594 C 119.6875 191.089844 123.480469 187.289062 150.328125 160.554688 L 153.460938 157.414062 C 159.777344 150.796875 165.816406 144.820312 171.464844 139.207031 C 193.675781 117.210938 209.863281 101.171875 214.980469 72.085938 C 216.21875 64.945312 219.46875 55.511719 224.144531 48.667969 C 226.769531 44.871094 229.929688 41.746094 233.59375 40.035156 C 237.816406 38.027344 242.441406 37.859375 247.332031 40.378906 C 250.886719 42.210938 254.488281 45.539062 258.082031 50.757812 L 258.0625 50.777344 C 277.984375 79.792969 260.167969 125.335938 247.804688 155.679688 L 321.628906 155.679688 C 329.53125 155.679688 336.675781 159.039062 341.84375 164.425781 C 346.964844 169.761719 350.121094 177.117188 350.121094 185.210938 C 350.121094 190.203125 348.910156 194.929688 346.777344 199.085938 C 346.363281 199.890625 345.910156 200.679688 345.410156 201.449219 C 349.523438 203.023438 353.222656 205.496094 356.265625 208.65625 C 361.558594 214.191406 364.839844 221.832031 364.839844 230.199219 C 364.839844 237.8125 362.160156 244.761719 357.742188 250.109375 C 355.289062 253.0625 352.308594 255.535156 348.933594 257.355469 C 349.789062 258.539062 350.554688 259.789062 351.226562 261.109375 C 353.339844 265.242188 354.542969 269.949219 354.542969 274.902344 C 354.542969 282.988281 351.375 290.34375 346.265625 295.6875 Z M 71.285156 306.570312 C 77.214844 306.570312 82.027344 311.394531 82.027344 317.320312 C 82.027344 323.257812 77.214844 328.0625 71.285156 328.0625 C 65.351562 328.0625 60.550781 323.257812 60.550781 317.320312 C 60.550781 311.394531 65.351562 306.570312 71.285156 306.570312 Z M 27.910156 175.335938 L 115.777344 175.335938 L 115.730469 175.414062 C 101.546875 199.3125 102.996094 236.992188 102.996094 263.933594 C 102.996094 289.582031 105.589844 317.519531 118.75 336.324219 L 27.910156 336.324219 C 18.113281 336.324219 10.125 328.339844 10.125 318.523438 L 10.125 193.136719 C 10.125 183.339844 18.113281 175.335938 27.910156 175.335938 Z M 27.910156 175.335938 " fill-opacity="1" fill-rule="evenodd"/></svg>